# xmcd CD database file
#
# Track frame offsets:
#	150
#	18746
#	38641
#	50240
#	64621
#	76141
#	87069
#	97729
#	114499
#	131824
#	140669
#	153591
#
# Disc length: 2321 seconds
#
# Revision: 0
# Processed by: cddbd v1.4PL0 Copyright (c) Steve Scherf et al.
# Submitted via: CDex 1.50beta9
#
DISCID=9a090f0c
DTITLE=Enya - I Can't Believe It's Not...
DYEAR=2000
DGENRE=New Age
TTITLE0=Caribbean Blue
TTITLE1=Orinoco Flow
TTITLE2=Watermark
TTITLE3=River
TTITLE4=Tea-House Moon
TTITLE5=Lothrien
TTITLE6=From Where I Am
TTITLE7=On Your Shore
TTITLE8=Shepperd Moons
TTITLE9=Miss Clare Remembers
TTITLE10=No Holly For Miss Quinn
TTITLE11=How Can I Keep From Singing
EXTD=YEAR: 2000
EXTT0=
EXTT1=
EXTT2=
EXTT3=
EXTT4=
EXTT5=
EXTT6=
EXTT7=
EXTT8=
EXTT9=
EXTT10=
EXTT11=
PLAYORDER=
